<svg xmlns="http://www.w3.org/2000/svg" viewBox="0 0 123.32 137.24"><defs><style>.cls-1{fill:#249cd6;}.cls-2{fill:#44c5ff;}</style></defs><title>Buddy Icon </title><g id="Layer_2" data-name="Layer 2"><g id="Layer_1-2" data-name="Layer 1"><path class="cls-1" d="M123.32,137.24H0A61.68,61.68,0,0,1,42.8,78.52c.7-.22,1.41-.44,2.12-.64a62,62,0,0,1,12.57-2.16c1.39-.09,2.77-.14,4.17-.14a61.61,61.61,0,0,1,61.66,61.66Z"/><path class="cls-2" d="M120.81,119.78a76.49,76.49,0,0,1-10.22.69A75.73,75.73,0,0,1,42.8,78.52c.7-.22,1.41-.44,2.12-.64a62,62,0,0,1,12.57-2.16c1.39-.09,2.77-.14,4.17-.14a61.71,61.71,0,0,1,59.15,44.2Z"/><path class="cls-1" d="M64,0c-.47,0-.94,0-1.4,0a39.83,39.83,0,0,0-7.12.88A37.65,37.65,0,0,0,51.5,2c-.53.17-1,.35-1.56.54A40.28,40.28,0,0,0,64,80.56h.64A40.28,40.28,0,0,0,64,0Zm7.28,32.9A9.2,9.2,0,0,1,73,28a4.48,4.48,0,0,1,2.7-1.88,4,4,0,0,1,4.16,1.83,9.64,9.64,0,0,1,1.84,6,9.84,9.84,0,0,1-1.84,6c-1.95,2.55-4.92,2.55-6.84,0A9.92,9.92,0,0,1,71.25,32.9ZM47.69,28.46a6.77,6.77,0,0,1,1.75-1.83,3.73,3.73,0,0,1,5.05.8,8.8,8.8,0,0,1,2.13,5c.06.48.08,1,.11,1.36a9.68,9.68,0,0,1-2.2,6.5,3.88,3.88,0,0,1-6.16,0,8.62,8.62,0,0,1-2-4.88A10.1,10.1,0,0,1,47.69,28.46ZM80,54.3A45.64,45.64,0,0,1,60.32,57a42.14,42.14,0,0,1-10.67-2,24.18,24.18,0,0,1-8.51-4.59A11.81,11.81,0,0,1,38.46,47a1.1,1.1,0,0,1,0-1.4,1.09,1.09,0,0,1,1.37-.19,49.59,49.59,0,0,0,7.35,2.65,61.55,61.55,0,0,0,8.82,1.69,65.74,65.74,0,0,0,11.13.38,64.1,64.1,0,0,0,10.93-1.42,49.36,49.36,0,0,0,9.48-3.11l.32-.15c.89-.38,1.3-.25,1.78.58v.61A13.58,13.58,0,0,1,86,51c-.52.4-1.06.78-1.62,1.13A25.15,25.15,0,0,1,80,54.3Z"/><path class="cls-2" d="M64,0c-.47,0-.94,0-1.4,0a39.83,39.83,0,0,0-7.12.88A37.65,37.65,0,0,0,51.5,2,56.64,56.64,0,0,0,78.11,48.74a49.36,49.36,0,0,0,9.48-3.11l.32-.15c.89-.38,1.3-.25,1.78.58v.61A13.58,13.58,0,0,1,86,51c-.52.4-1.06.78-1.62,1.13a56.51,56.51,0,0,0,16.32,4.75A40.3,40.3,0,0,0,64,0ZM79.85,39.87c-1.95,2.55-4.92,2.55-6.84,0a9.92,9.92,0,0,1-1.76-6.94A9.2,9.2,0,0,1,73,28a4.48,4.48,0,0,1,2.7-1.88,4,4,0,0,1,4.16,1.83,9.64,9.64,0,0,1,1.84,6A9.84,9.84,0,0,1,79.85,39.87Z"/></g></g></svg>