<svg xmlns="http://www.w3.org/2000/svg" viewBox="0 0 31.71 31.71"><defs><style>.cls-1{fill:#9696a4;}</style></defs><title>Calendar</title><g id="Layer_2" data-name="Layer 2"><g id="Layer_1-2" data-name="Layer 1"><path class="cls-1" d="M0,26.2V7.93c0-.07.05-.14.06-.2A6.11,6.11,0,0,1,5.62,2.47c.55,0,1.11,0,1.69,0,0-.35,0-.63,0-.9A1.38,1.38,0,0,1,8.3,0h.49a1.41,1.41,0,0,1,1,1.61,7.24,7.24,0,0,0,0,.81H21.93c0-.28,0-.55,0-.81a1.41,1.41,0,0,1,1-1.61h.5a1.38,1.38,0,0,1,1,1.57,8.28,8.28,0,0,0,0,.87h1.05a6.13,6.13,0,0,1,6.26,6.08c0,5.71,0,11.41,0,17.12a6.09,6.09,0,0,1-6.05,6.06q-9.79,0-19.6,0A6.12,6.12,0,0,1,.17,27C.11,26.74.06,26.47,0,26.2Zm2.48-14v.32c0,4.33,0,8.65,0,13a3.63,3.63,0,0,0,3.68,3.7H25.54a3.65,3.65,0,0,0,3.69-3.73V12.56c0-.11,0-.22,0-.33ZM7.31,4.94C3.69,4.53,2.09,7,2.52,9.73H29.2c.43-3.41-1.81-5.2-4.8-4.77,0,.79,0,1.58,0,2.37a1.24,1.24,0,0,1-2.47,0c0-.33,0-.66,0-1V4.94H9.81a.45.45,0,0,0,0,.08c0,.73,0,1.47,0,2.2a1.24,1.24,0,1,1-2.47,0C7.3,6.46,7.31,5.71,7.31,4.94Z"/><path class="cls-1" d="M8.57,23.16c.4,0,.81,0,1.21,0A1.25,1.25,0,0,1,11,24.39a1.23,1.23,0,0,1-1.2,1.24c-.84,0-1.67,0-2.51,0a1.24,1.24,0,0,1,0-2.47C7.73,23.15,8.15,23.16,8.57,23.16Z"/><path class="cls-1" d="M23.15,25.64H22a1.24,1.24,0,1,1,0-2.48h2.35a1.24,1.24,0,0,1,1.28,1.23,1.25,1.25,0,0,1-1.29,1.25Z"/><path class="cls-1" d="M23.18,18.33c-.41,0-.81,0-1.21,0a1.24,1.24,0,1,1,0-2.47h2.41a1.23,1.23,0,0,1,1.24,1.23,1.24,1.24,0,0,1-1.24,1.24C24,18.34,23.58,18.33,23.18,18.33Z"/><path class="cls-1" d="M8.55,15.85h1.2a1.24,1.24,0,1,1,0,2.47c-.81,0-1.61,0-2.42,0a1.24,1.24,0,1,1,0-2.47Z"/><path class="cls-1" d="M15.84,18.33c-.4,0-.81,0-1.21,0a1.25,1.25,0,0,1-1.24-1.24,1.23,1.23,0,0,1,1.24-1.23h2.45a1.24,1.24,0,0,1,0,2.47C16.66,18.34,16.25,18.33,15.84,18.33Z"/><path class="cls-1" d="M15.85,23.16c.41,0,.81,0,1.21,0a1.24,1.24,0,1,1,0,2.47c-.81,0-1.63,0-2.44,0a1.24,1.24,0,0,1,0-2.47C15,23.15,15.44,23.16,15.85,23.16Z"/></g></g></svg>