<svg xmlns="http://www.w3.org/2000/svg" viewBox="0 0 34.69 34.69"><defs><style>.cls-1{fill:#9696a4;}</style></defs><title>Clock</title><g id="Layer_2" data-name="Layer 2"><g id="Layer_1-2" data-name="Layer 1"><path class="cls-1" d="M16.26,0h2.17c.7.1,1.41.16,2.1.29a17.36,17.36,0,0,1,14,19.33,16.79,16.79,0,0,1-6.64,11.46A16.83,16.83,0,0,1,15,34.53,16.72,16.72,0,0,1,6.4,30.78,17.12,17.12,0,0,1,.27,20.37c-.12-.64-.18-1.3-.27-1.94V16.26c.05-.42.1-.85.16-1.27A17.12,17.12,0,0,1,5,5.21,17,17,0,0,1,14.36.27C15,.16,15.63.09,16.26,0Zm1.09,2.31a15,15,0,1,0,15,15.05A15.07,15.07,0,0,0,17.35,2.31Z"/><path class="cls-1" d="M16.19,12.72c0-1.53,0-3.07,0-4.6a1.16,1.16,0,1,1,2.31.05v5.15c0,1,0,2.1,0,3.15a.6.6,0,0,0,.27.53q2.52,2,5,4a1.15,1.15,0,1,1-1.45,1.79L18.82,20,16.7,18.31a1.27,1.27,0,0,1-.51-1.08C16.2,15.73,16.19,14.22,16.19,12.72Z"/></g></g></svg>