<svg xmlns="http://www.w3.org/2000/svg" viewBox="0 0 6.94 6.08"><defs><style>.cls-1{fill:#fff;}</style></defs><title>Messages</title><g id="Layer_2" data-name="Layer 2"><g id="Layer_1-2" data-name="Layer 1"><path class="cls-1" d="M6.94,5.93c-.09.17-.2.2-.37.08l-1-.74a.61.61,0,0,0-.39-.13c-.79,0-1.59,0-2.38,0a.78.78,0,0,1-.82-.82V4.18a.19.19,0,0,1,.2-.2.19.19,0,0,1,.2.19.33.33,0,0,1,0,.14.4.4,0,0,0,.43.43H5.14a.86.86,0,0,1,.22,0,1,1,0,0,1,.4.17l.7.5.07.05V2.39A.38.38,0,0,0,6.13,2H5.64a.2.2,0,0,1-.23-.2.2.2,0,0,1,.22-.2c.22,0,.43,0,.64,0a.75.75,0,0,1,.66.64s0,0,0,0Z"/><path class="cls-1" d="M2.75,0h2c.12,0,.2.05.22.15A.22.22,0,0,1,5,.23V2.77a.78.78,0,0,1-.79.8H1.81a.7.7,0,0,0-.42.13l-1,.75A.2.2,0,0,1,0,4.35a.28.28,0,0,1,0-.09V.82A.78.78,0,0,1,.82,0ZM.41,3.9l.06,0,.7-.5a1,1,0,0,1,.63-.2H4.18a.38.38,0,0,0,.42-.41V.41H.82A.38.38,0,0,0,.41.83V3.9Z"/><path class="cls-1" d="M2.63,1.51H1.47a.2.2,0,0,1-.19-.29.2.2,0,0,1,.2-.11h2.3A.21.21,0,0,1,4,1.29a.19.19,0,0,1-.21.22H2.63Z"/><path class="cls-1" d="M2.64,2.46H1.47a.2.2,0,0,1-.19-.29.23.23,0,0,1,.21-.11H3.78A.21.21,0,0,1,4,2.24a.19.19,0,0,1-.21.22H2.64Z"/></g></g></svg>