<svg xmlns="http://www.w3.org/2000/svg" viewBox="0 0 6.22 6.22"><defs><style>.cls-1{fill:#fff;}</style></defs><title>Time</title><g id="Layer_2" data-name="Layer 2"><g id="Layer_1-2" data-name="Layer 1"><path class="cls-1" d="M2.92,0h.39l.31,0A3.11,3.11,0,0,1,5.17.78a3,3,0,0,1,1,1.79c0,.12,0,.23,0,.35V3.3a.43.43,0,0,1,0,.05A3,3,0,0,1,5.78,4.7,3,3,0,0,1,3.65,6.17l-.34,0H2.86l-.39-.06A3,3,0,0,1,.63,5,3.05,3.05,0,0,1,0,2.69,3,3,0,0,1,.89.94,3,3,0,0,1,2.57.05ZM5.81,3.11a2.7,2.7,0,1,0-2.7,2.7A2.71,2.71,0,0,0,5.81,3.11Z"/><path class="cls-1" d="M2.9,2.28V1.45a.19.19,0,0,1,.15-.19.17.17,0,0,1,.22.07.27.27,0,0,1,0,.15V3a.11.11,0,0,0,.05.1l.9.72A.21.21,0,0,1,4.34,4,.2.2,0,0,1,4,4.09L3.52,3.7,3,3.29a.23.23,0,0,1-.1-.2Z"/></g></g></svg>