<svg xmlns="http://www.w3.org/2000/svg" viewBox="0 0 5.72 5.72"><defs><style>.cls-1,.cls-2{fill:none;stroke:#fff;stroke-miterlimit:10;}.cls-1{stroke-width:0.25px;}.cls-2{stroke-width:0.33px;}</style></defs><title>Tasks</title><g id="Layer_2" data-name="Layer 2"><g id="Layer_1-2" data-name="Layer 1"><path class="cls-1" d="M2.44,3.83l0,0a.06.06,0,0,1-.08,0h0L1.4,3a.06.06,0,0,1,0-.08l0,0a.05.05,0,0,1,0,0Z"/><path class="cls-1" d="M3.94,2.3a.05.05,0,0,1,0,0L2.44,3.83l0,0a.06.06,0,0,1-.08,0h0a.06.06,0,0,1,0-.08l0,0L3.84,2.26a.06.06,0,0,1,.08,0A.08.08,0,0,1,3.94,2.3Z"/><path class="cls-1" d="M4.34,1.9a.08.08,0,0,1,0,0L2.84,3.42l0,0a.08.08,0,0,1-.08,0h0a.05.05,0,0,1,0-.08l0,0L4.24,1.86a0,0,0,0,1,.08,0A.05.05,0,0,1,4.34,1.9Z"/><rect class="cls-2" x="0.17" y="0.17" width="5.39" height="5.39" rx="0.72"/></g></g></svg>