<svg xmlns="http://www.w3.org/2000/svg" viewBox="0 0 31.26 22.17"><defs><style>.cls-1{fill:#9898a0;}</style></defs><title>Asset 4</title><g id="Layer_2" data-name="Layer 2"><g id="Layer_1-2" data-name="Layer 1"><path class="cls-1" d="M28.14,8.76l-2.32,3.15-.11.15-4.09,5.68c-2.29,3.46-5,.93-5,.93l-6.26-4.83-2,2.65L4.87,21.17s-1.81,2-3.78.4A3,3,0,0,1,.44,17.7L4,13.12l3-4C9,6.06,11.41,7.78,11.41,7.78L18.22,13l3.14-4.39,2.3-3.2C21.19,4.33,23,3.19,23,3.19l6.59-3A1.76,1.76,0,0,1,30.83.08c.57.23.41,1.21.41,1.21l-.66,6.84C30.35,10.81,28.14,8.76,28.14,8.76Z"/></g></g></svg>