<svg id="Layer_1" data-name="Layer 1" xmlns="http://www.w3.org/2000/svg" viewBox="0 0 406.97 457.39"><defs><style>.cls-1{fill:#376eeb;}.cls-2{fill:#3d3d3d;}.cls-3{fill:none;stroke:#3d3d3d;stroke-linecap:round;stroke-miterlimit:10;stroke-width:29.07px;}.cls-4{fill:#ffbc40;}</style></defs><title>lvl up</title><path class="cls-1" d="M556.5,742.29c-18.17-10.93-26-28.83-25.38-57.81.89-40.89.7-82.46.52-122.67-.08-16.62-.15-33.82-.15-50.72V486.51l-4-1-3.15-.76-2,2.54c-3.09,3.9-6.12,7.93-9.06,11.84-4.47,5.93-9.09,12.07-13.86,17.7C492.05,525.5,483,530.28,474,530.28c-8.59,0-16.59-4.17-23.13-12.07-14.35-17.33-14.1-44.32.6-62.78,27.83-34.95,57.1-70.94,89.47-110,7.38-8.91,15.92-13.63,24.69-13.63s17.32,4.72,24.73,13.64C618.6,379.38,647.57,415,679,454.25c15.5,19.39,16.1,46.29,1.43,64-6.53,7.87-14.44,12-22.89,12-9.29,0-18.71-5.17-26.52-14.56q-1.59-1.91-3.16-3.86c-5.75-7.06-11.69-14.36-20-20.2l-8-5.56v68.34c0,12.93-.08,26.08-.17,38.81-.2,29.92-.41,60.86.51,91.29.88,29-7,46.85-25.4,57.81Z" transform="translate(-365.97 -290)"/><path class="cls-2" d="M565.65,336.85c7.22,0,14.43,4.09,20.84,11.81,28.19,33.93,57.15,69.5,88.52,108.75,14,17.52,14.63,41.74,1.48,57.59-5.53,6.68-12.1,10.2-19,10.2-7.76,0-15.8-4.52-22.63-12.73-1-1.26-2.09-2.54-3.13-3.82-6-7.33-12.13-14.91-21.06-21.15l-15.92-11.14v78.06c0,12.91-.08,26.06-.17,38.77-.2,30-.41,61,.52,91.48.79,26.25-5.94,42.6-21.77,52.59h-7.7l-7.7,0a42.27,42.27,0,0,1-16.53-19.06c-3.82-8.7-5.54-19.69-5.23-33.58.88-41,.7-82.56.52-122.79-.08-16.63-.15-33.81-.15-50.71V482.55l-7.68-1.91-.06,0-.08,0L522.4,479l-4,5.11c-3.12,3.95-6.18,8-9.13,11.93-4.63,6.15-9,12-13.67,17.48-6.39,7.53-14,11.67-21.53,11.67-7,0-13.68-3.54-19.23-10.24a42.69,42.69,0,0,1-9.4-27.45,46.85,46.85,0,0,1,10.06-28.95c27.8-34.92,57.05-70.88,89.4-109.93,6.39-7.72,13.59-11.8,20.8-11.8m0-10.12c-10,0-20.06,5.17-28.59,15.46q-45.18,54.54-89.53,110.08c-16.37,20.57-16.14,50.33-.54,69.17,7.68,9.26,17.26,13.9,27,13.9,10.21,0,20.62-5.08,29.24-15.25,8-9.46,15.28-19.88,23-29.67l.15,0v20.63c0,57.77.88,115.56-.37,173.28-.64,29.53,7.2,50.47,29.06,63l21,0c22-12.45,30-33.5,29.1-63-1.31-43.26-.34-86.63-.34-130V495.79c9.25,6.47,15.51,15.09,22.21,23.15,9.07,10.91,19.87,16.38,30.41,16.38,9.67,0,19.11-4.61,26.78-13.86,16-19.26,15.77-48.93-1.37-70.36Q639,396.16,594.28,342.19c-8.57-10.31-18.61-15.46-28.63-15.46Z" transform="translate(-365.97 -290)"/><line class="cls-3" x1="53.56" y1="355.54" x2="53.56" y2="433.6"/><line class="cls-3" x1="92.59" y1="394.57" x2="14.53" y2="394.57"/><path class="cls-4" d="M720.93,378.46a9.27,9.27,0,0,0-8.61,0L684.73,393h0a.11.11,0,0,1-.09,0l5.28-30.75a9.25,9.25,0,0,0-2.66-8.19l-22.32-21.76a.1.1,0,0,1,0-.11l30.88-4.48a9.26,9.26,0,0,0,7-5.06l13.8-27.95.1,0,13.81,28a9.24,9.24,0,0,0,7,5.06l30.85,4.48a.12.12,0,0,1,.06.1L746,354a9.27,9.27,0,0,0-2.66,8.19l5.27,30.72a.09.09,0,0,1-.06.08Z" transform="translate(-365.97 -290)"/><path class="cls-2" d="M716.62,304.89l9.74,19.72a13.82,13.82,0,0,0,10.42,7.57l21.77,3.17L742.8,350.7a13.84,13.84,0,0,0-4,12.25l3.72,21.69L723.06,374.4a13.84,13.84,0,0,0-12.88,0l-19.47,10.24L694.43,363a13.84,13.84,0,0,0-4-12.25L674.7,335.35l21.77-3.17a13.82,13.82,0,0,0,10.42-7.57l9.73-19.72m0-14.89a4.6,4.6,0,0,0-4.17,2.6l-13.8,27.95a4.67,4.67,0,0,1-3.5,2.55l-30.85,4.48a4.65,4.65,0,0,0-2.58,7.94L684,357.28a4.65,4.65,0,0,1,1.34,4.12l-5.27,30.72a4.64,4.64,0,0,0,6.76,4.91l27.59-14.5a4.61,4.61,0,0,1,4.33,0L746.38,397a4.6,4.6,0,0,0,2.17.55,4.68,4.68,0,0,0,4.59-5.46l-5.27-30.72a4.65,4.65,0,0,1,1.34-4.12l22.32-21.76a4.66,4.66,0,0,0-2.58-7.94L738.1,323.1a4.64,4.64,0,0,1-3.5-2.55L720.8,292.6a4.61,4.61,0,0,0-4.18-2.6Z" transform="translate(-365.97 -290)"/></svg>