<svg id="Layer_1" data-name="Layer 1" xmlns="http://www.w3.org/2000/svg" viewBox="0 0 299.28 443.78"><defs><style>.cls-1{fill:#ffbc40;}.cls-2{fill:#3d3d3d;}.cls-3{fill:#376eeb;}</style></defs><title>no energy</title><path class="cls-1" d="M450.87,760.82l-.91-.56a7.53,7.53,0,0,1-2.84-2.3c-1.3-2.29-1.3-4.55,0-8,10.9-29.06,21.93-58.63,32.6-87.23l10.62-28.45,3.93-10.56c4.15-11.13,8.43-22.64,12.74-33.91a6.85,6.85,0,0,0-6.58-9.58c-6.67.06-13.85.09-22.68.09l-14.68,0h-8.8c-3.18,0-5.64-.91-6.93-2.56-1.6-2.05-1.32-5-.8-7.05q8.54-34.36,17.08-68.73Q477.28,447,490.89,392.05c.64-2.57,2.08-4.32,5-6.05H634.58c2.75,1.61,4.36,3.25,4.82,4.88.52,1.86-.24,4.52-2.25,7.9L618.39,430.3q-17.32,29.11-34.65,58.24l-.34.53a10.1,10.1,0,0,0-2,5.52l-.17,4.66h45.87l5.31,0h.19c3,0,4.89,1.09,6.18,3.56s1.14,5-.73,7.62q-6.54,9.06-13.14,18.08l-6.24,8.57L541.29,643.4c-.23.31-.48.6-.73.89L540,645l-16,22.21c-21.09,29.23-42.91,59.44-64.31,89.21a17.76,17.76,0,0,1-5.09,4.54Z" transform="translate(-441.64 -321.75)"/><path class="cls-2" d="M633.29,390.5a5.93,5.93,0,0,1,1.77,1.59c0,.2,0,1.48-1.78,4.39l-19.13,32.13Q597,457.42,579.88,486.23l-.22.33a14.53,14.53,0,0,0-2.78,7.86l-.35,9.33h50.55c2.06,0,3.77,0,5.37,0h.12c1.59,0,1.79.38,2.19,1.15s.67,1.44-.39,2.9c-4.36,6-8.83,12.17-13.15,18.11L615,534.42l-19.29,26.52q-29,39.91-58.06,79.81c-.09.12-.32.4-.51.62l-.56.66-.19.23-.18.24-16.08,22.29c-21.05,29.16-42.82,59.32-64.18,89a11.2,11.2,0,0,1-2.72,2.61H453l-.72,0c-.46-.28-1-.64-1.32-.85-.32-.63-.54-1.45.43-4,10.94-29.17,22-58.85,32.73-87.55q5.25-14.07,10.5-28.14,2-5.29,3.95-10.6c4.13-11.11,8.41-22.59,12.71-33.83a11.35,11.35,0,0,0-10.79-15.69h-.12c-6.59.06-13.78.09-22.62.09l-14.62,0h-8.8c-2,0-3.12-.5-3.38-.83s-.43-1.4,0-3.2q8.54-34.43,17.1-68.83c8.94-36,18.18-73.16,27.24-109.76a4.14,4.14,0,0,1,2-2.63H633.29m2.46-9h-141c-4,2.1-7.06,4.77-8.22,9.47q-22.11,89.31-44.35,178.58c-2.24,9,2.7,15.19,12.1,15.2q11.7,0,23.42,0,11.35,0,22.7-.09h0a2.38,2.38,0,0,1,2.38,3.48c-5.66,14.79-11.15,29.65-16.69,44.49q-21.58,57.86-43.22,115.68c-1.53,4.09-2,7.87.29,11.84,1.46,2.58,4.05,3.54,6.23,5.08l6.27.28a24,24,0,0,0,7.56-6.47q40-55.71,80.25-111.3c.48-.57,1-1.12,1.42-1.72q38.69-53.16,77.35-106.33c6.47-8.89,13-17.75,19.39-26.66,2.79-3.87,3.3-8.08,1.07-12.34-2.12-4.06-5.6-6-10.17-6h-.26c-1.74,0-3.49,0-5.23,0l-8.26,0h-33c.06-1.75,1.06-2.77,1.74-3.91q26.68-44.89,53.4-89.76c5.32-8.94,3.75-14.76-5.26-19.58Z" transform="translate(-441.64 -321.75)"/><path class="cls-3" d="M708.93,556.25a17.56,17.56,0,0,0-3.14-1.32,11,11,0,0,1-1.95-.78c-5.12-3-8.35-9.15-7.7-14.69.82-7,4.37-11.42,10.87-13.56a14.93,14.93,0,0,1,4.76-.78A15.54,15.54,0,0,1,726.16,546a14.93,14.93,0,0,1-11.83,9.84,3.92,3.92,0,0,0-1.14.37Z" transform="translate(-441.64 -321.75)"/><path class="cls-2" d="M711.77,528.62h0a11.74,11.74,0,0,1,8.86,4.1,12,12,0,0,1,2.24,12.12,11.48,11.48,0,0,1-9.07,7.58,7.08,7.08,0,0,0-1.32.33H709.8a22.52,22.52,0,0,0-2.89-1.13,11.6,11.6,0,0,1-1.32-.5c-3.89-2.26-6.46-7.1-6-11.25.67-5.65,3.29-8.93,8.49-10.65a11.56,11.56,0,0,1,3.67-.6m0-7a18.71,18.71,0,0,0-5.86,1c-7.9,2.61-12.28,8.25-13.25,16.48-.83,7.07,3.22,14.53,9.42,18.13,1.87,1.08,4.09,1.25,5.81,2.57h6.51c.15-.14.29-.38.46-.41,14.21-2.17,21-19.71,11.06-31.21a18.75,18.75,0,0,0-14.15-6.51Z" transform="translate(-441.64 -321.75)"/><path class="cls-3" d="M711.55,507.6c-6.84-.05-12.81-5.06-13.59-11.4s-1.33-13-1.84-19.33c-.17-2.14-.35-4.29-.53-6.43q-1.87-22-3.7-43.92l-.33-4q-.9-10.68-1.78-21.37l-1.65-19.83q-.3-3.66-.59-7.33c-.46-5.89-.94-12-1.59-18-1.56-14.41,6-26.41,18.85-29.85a26.39,26.39,0,0,1,6.85-.92,25,25,0,0,1,17.92,7.56,28.34,28.34,0,0,1,7.85,20.54l-.7,8.48c-.57,7-1.19,14.48-1.82,22q-1.14,13.76-2.32,27.51L730.1,440.8q-1.36,16.29-2.75,32.58c-.17,2-.33,4.05-.49,6.08-.44,5.48-.89,11.16-1.59,16.67-.81,6.43-6.79,11.47-13.6,11.47Z" transform="translate(-441.64 -321.75)"/><path class="cls-2" d="M711.65,321.75v7a21.51,21.51,0,0,1,15.43,6.52,24.89,24.89,0,0,1,6.84,17.91l-.68,8.31c-.58,7-1.2,14.51-1.83,22q-1.14,13.74-2.31,27.49l-1.22,14.39L726.6,440.7q-1.36,16.19-2.74,32.39-.25,3-.49,6.08c-.43,5.45-.88,11.09-1.57,16.52-.6,4.72-5,8.42-10.13,8.42h-.09c-5.12,0-9.58-3.7-10.15-8.33-.78-6.32-1.31-12.86-1.82-19.19-.18-2.14-.35-4.29-.53-6.44-1.24-14.49-2.47-29.22-3.67-43.47l-.37-4.43-1.77-21.38L691.62,381c-.21-2.44-.4-4.88-.59-7.32-.46-5.91-.94-12-1.6-18.08-1.37-12.62,5.18-23.11,16.28-26.09a22.89,22.89,0,0,1,5.94-.8v-7m0,0a29.9,29.9,0,0,0-7.75,1c-14.55,3.9-23.17,17.56-21.43,33.61.91,8.39,1.47,16.81,2.17,25.22q1.73,20.61,3.43,41.2,2,24,4,47.91c.74,8.64,1.32,17.3,2.38,25.9,1,8.26,8.55,14.4,17,14.47h.15c8.45,0,16-6.21,17.08-14.53,1-7.6,1.44-15.26,2.09-22.89q2-23.83,4-47.68,1.75-20.94,3.53-41.89c.9-10.72,1.77-21.45,2.52-30.59.33-18.5-13.27-31.77-29.26-31.77Z" transform="translate(-441.64 -321.75)"/></svg>