<svg id="Layer_1" data-name="Layer 1" xmlns="http://www.w3.org/2000/svg" viewBox="0 0 347.22 345.52"><defs><style>.cls-1{fill:#ffbc40;}.cls-2{fill:#3d3d3d;}.cls-3,.cls-5{fill:none;}.cls-3,.cls-4,.cls-5{stroke:#3d3d3d;stroke-miterlimit:10;}.cls-3{stroke-width:7px;}.cls-4{fill:#376eeb;}.cls-4,.cls-5{stroke-width:9px;}</style></defs><title>action</title><path class="cls-1" d="M456.25,704.88a30.56,30.56,0,0,1-9.28-1.54c-10.18-3.28-16.36-10.29-18.36-20.85-1.82-9.63.91-17.9,8.35-25.29,11.25-11.17,22.64-22.57,33.66-33.59q9.83-9.84,19.67-19.66a21.89,21.89,0,0,1,1.8-1.51c.47-.37,1-.77,1.56-1.24l3.86-3.17L494,594.52c-1.87-1.85-3.72-3.62-5.54-5.36-4-3.88-7.87-7.54-11.31-11.47-3.21-3.65-7.21-8.53-9.66-13.85-6.34-13.72-3.17-31.06,7.7-42.17a9.59,9.59,0,0,1,14.86-.18c5.11,5,10.06,10,15.31,15.28l6.82,6.85,3.41,3.41,9.76-11.17,14.56-16.66,22.21-25.44c30.69-35.17,62.43-71.53,93.59-107.35a13.08,13.08,0,0,1,9.22-4.91c15.94-1.59,32.12-3.28,47.78-4.92l20.06-2.09,4-.43c3.9-.42,7.93-.85,11.87-1.15.44,0,.87-.05,1.29-.05,3.25,0,5.87,1,7.57,2.84s2.53,4.77,2.22,8.24c-1,11.2-2.24,22.6-3.44,33.63q-.66,6.06-1.31,12.12t-1.34,12.15c-.94,8.36-1.9,17-2.66,25.56a13.21,13.21,0,0,1-5,9.49c-22.32,19.4-45,39.18-66.87,58.3l-18.73,16.36L592.3,611c-.65.57-1.29,1.15-2,1.81l-1.08,1-3.31,3,3,3.32.77.87c.59.66,1.19,1.34,1.86,2l7.79,7.79c4.58,4.56,9.3,9.27,13.91,13.94,2.51,2.55,3.79,5.32,3.71,8s-1.52,5.4-4.18,7.81a39.29,39.29,0,0,1-54-.9c-4.57-4.41-9-8.88-13.61-13.61l-6.45-6.53-3.19-3.21-15.11,15.13-27.67,27.71c-1.78,1.77-3.53,3.56-5.29,5.34-4.19,4.26-8.53,8.67-13,12.75C469,702.3,462.88,704.88,456.25,704.88Z" transform="translate(-417.07 -368.36)"/><path class="cls-2" d="M749.93,377.36c1.12,0,3.16.18,4.25,1.38.87.95,1.25,2.65,1.06,4.8-1,11.16-2.24,22.54-3.44,33.54q-.66,6.06-1.31,12.13t-1.34,12.15c-.93,8.38-1.9,17.05-2.66,25.64a8.78,8.78,0,0,1-3.49,6.49c-22.2,19.3-44.72,39-66.5,58l-19.11,16.69-68,59.41c-.72.63-1.39,1.25-2.1,1.91l-1.06,1-6.62,6,6,6.64.75.84c.62.7,1.27,1.43,2,2.19l7.84,7.83c4.55,4.54,9.26,9.24,13.85,13.88,1.13,1.15,2.47,2.9,2.42,4.72s-1.5,3.51-2.71,4.6a34.79,34.79,0,0,1-47.85-.8c-4.52-4.36-8.88-8.8-13.51-13.51-2.13-2.17-4.28-4.36-6.48-6.57l-6.37-6.4-6.38,6.39L517.52,648l-27.94,28c-1.77,1.77-3.54,3.57-5.3,5.36-4.16,4.22-8.46,8.59-12.8,12.6-4.71,4.35-9.69,6.47-15.23,6.47a25.91,25.91,0,0,1-7.9-1.33c-8.62-2.77-13.63-8.46-15.32-17.39-1.55-8.17.71-14.92,7.1-21.27,11.24-11.16,22.62-22.54,33.62-33.55l19.72-19.71c.25-.25.78-.67,1.4-1.15s1-.81,1.63-1.3l7.73-6.34-7.11-7c-1.9-1.88-3.77-3.68-5.59-5.41-4-3.81-7.72-7.41-11-11.19-3-3.42-6.74-8-9-12.77-5.57-12.06-2.76-27.33,6.84-37.14a5.19,5.19,0,0,1,8.48-.12c5.1,5,10,10,15.28,15.25q3.39,3.42,6.83,6.86l6.81,6.82,6.34-7.26,6.83-7.81,14.32-16.39,22.33-25.59c30.65-35.12,62.35-71.43,93.47-107.2a8.69,8.69,0,0,1,6.28-3.39c16-1.59,32.16-3.29,47.83-4.93l20-2.09,4-.43c3.87-.41,7.86-.84,11.73-1.13.32,0,.64,0,.95,0m0-9c-.53,0-1.08,0-1.63.06-5.36.41-10.69,1-16,1.59-22.61,2.35-45.21,4.75-67.83,7a17.68,17.68,0,0,0-12.17,6.44q-57.81,66.45-115.79,132.78c-7,8-13.94,16-21.15,24.2-7.53-7.53-14.79-14.9-22.16-22.16a15,15,0,0,0-10.51-4.73c-3.76,0-7.5,1.67-10.73,5-12.05,12.33-15.84,31.46-8.57,47.2,2.51,5.43,6.38,10.4,10.37,14.94,5.14,5.87,11,11.09,17.06,17.06-1.57,1.29-2.71,2.08-3.68,3-17.78,17.74-35.5,35.55-53.32,53.25-8.25,8.18-11.75,18-9.6,29.32,2.29,12.15,9.62,20.5,21.41,24.29a34.81,34.81,0,0,0,10.65,1.76c7.77,0,15-3,21.34-8.86s12.26-12.11,18.36-18.21c13.07-13.07,26.13-26.16,39.59-39.64,6.92,7,13.4,13.71,20.13,20.2a43.76,43.76,0,0,0,60.13,1c7.3-6.58,7.6-15.27.66-22.31-7.19-7.29-14.48-14.49-21.72-21.75-.84-.84-1.61-1.76-2.48-2.72,1.16-1.07,2.06-1.92,3-2.74l68-59.41q42.78-37.35,85.59-74.65a17.71,17.71,0,0,0,6.55-12.5c1.11-12.56,2.66-25.08,4-37.62,1.63-15.28,3.4-30.54,4.76-45.84.86-9.71-5-16-14.27-16Z" transform="translate(-417.07 -368.36)"/><line class="cls-3" x1="98.43" y1="179.89" x2="171.43" y2="252.89"/><path class="cls-4" d="M513.33,540.44c-7.53-7.53-14.79-14.9-22.16-22.16-6.53-6.42-14.88-6.27-21.24.24-12.05,12.33-15.84,31.46-8.57,47.2,2.51,5.43,6.38,10.4,10.37,14.94,5.14,5.87,11,11.09,17.06,17.06-1.57,1.29-2.71,2.08-3.68,3-17.78,17.74-35.5,35.55-53.32,53.25-8.25,8.18-11.75,18-9.6,29.32,2.29,12.15,9.62,20.5,21.41,24.29s22.79,1.4,32-7.1c6.32-5.84,12.26-12.11,18.36-18.21,13.07-13.07,26.13-26.16,39.59-39.64,6.92,7,13.4,13.71,20.13,20.2a43.76,43.76,0,0,0,60.13,1c7.3-6.58,7.6-15.27.66-22.31-7.19-7.29-14.48-14.49-21.72-21.75-.84-.84-1.61-1.76-2.48-2.72" transform="translate(-417.07 -368.36)"/><line class="cls-5" x1="94.43" y1="169.89" x2="175.43" y2="250.89"/></svg>