<svg id="Layer_1" data-name="Layer 1" xmlns="http://www.w3.org/2000/svg" viewBox="0 0 513 523.44"><defs><style>.cls-1,.cls-2{fill:#ffbc40;}.cls-1,.cls-5{stroke:#3d3d3d;stroke-miterlimit:10;}.cls-1{stroke-width:9px;}.cls-3{fill:#3d3d3d;}.cls-4,.cls-5{fill:#376eeb;}.cls-5{stroke-width:7px;}</style></defs><title>rewards</title><rect class="cls-1" x="41" y="213.94" width="432" height="305" rx="12.29" ry="12.29"/><rect class="cls-2" x="4.5" y="121.44" width="504" height="101" rx="8.31" ry="8.31"/><path class="cls-3" d="M834.19,405.75a3.87,3.87,0,0,1,3.81,3.82v84.37a3.86,3.86,0,0,1-3.81,3.81H346.81a3.86,3.86,0,0,1-3.81-3.81V409.57a3.87,3.87,0,0,1,3.81-3.82H834.19m0-9H346.81A12.86,12.86,0,0,0,334,409.57v84.37a12.85,12.85,0,0,0,12.81,12.81H834.19A12.85,12.85,0,0,0,847,493.94V409.57a12.86,12.86,0,0,0-12.81-12.82Z" transform="translate(-334 -279.82)"/><path class="cls-4" d="M725.94,461.74c6.4,10.71,11.68,22,16.94,33.27,1,2.26,2.18,4.48,3.27,6.72l14.31,36c6.44,19.1,12.35,38.35,16.91,58,3.31,14.24,6.23,28.57,8.23,43.62-4-1.63-6.38-4.63-9.15-7C763.12,621,749,610.68,734.66,600.69c-3.84-2.68-5.51-1.85-7.54,1.92a380.58,380.58,0,0,1-29.84,46.7c-.83,1.11-1.32,3.19-3.09,2.67-1.35-.4-1-2.28-1.23-3.57A443.86,443.86,0,0,0,662,542.25c-.66-1.53-1.44-3-2.17-4.49-2.41-5.28-4.8-10.57-7.23-15.84-5.56-12.07-12.71-23.28-18.83-35,1.4-.53,2.76-1.17,4.19-1.57,20-5.53,40-11.18,60-16.48C707.29,466.37,716.36,463,725.94,461.74Z" transform="translate(-334 -279.82)"/><path class="cls-4" d="M802.25,347.07c-4-13.13-9.1-25.95-14.18-38.72-4.45-11.21-13-18.14-24.6-21.39-.63-.18-1.42-.06-2-.45l-14.71-.66c-11.47,5.34-23,10.63-34.41,16q-37.89,17.92-75.72,36c-1.63.77-3.19,1.72-4.78,2.59h0c-8.3-7-18.12-7.58-28.34-7.2-8.32.31-16.66.41-25,0-10.3-.46-20.16.16-28.45,7.16-22.61-10.85-45.17-21.82-67.85-32.52-15.89-7.5-31.51-15.6-47.9-22l-15.85.76c-3.65,2-7.85,2.79-11.28,5.27-5.93,4.27-10.73,9.5-13.34,16.37-4.88,12.86-10.15,25.62-14.13,38.76-5.66,18.66,3.14,36.14,21.08,44,19.55,6.29,39.53,11,59.24,16.72,3,.87,6,2,8.94,2.94a43.57,43.57,0,0,1,14.31,4.07c9.75,1.62,19.16,4.58,28.63,7.33-9.47-2.75-18.88-5.71-28.63-7.33-4.51,7.12-9.17,14.15-13.49,21.38-4.8,8.06-10,15.9-13.79,24.57C446,478.13,437.73,496.42,430.11,515c-3,7.21-5.72,14.5-8.57,21.75-8,23.68-15.11,47.6-20,72.14-1.92,9.66-3.57,19.38-5.38,29.3,2.36-.17,3.1-1.41,4.06-2.25a452.38,452.38,0,0,1,46.33-35.6c5.45-3.65,5.48-3.68,8.72,2.19A410.49,410.49,0,0,0,485,648.72c.73,1,1.21,2.78,2.82,2.28,1.19-.37,1-2,1.17-3.09,1.64-10.53,3.63-21,6.11-31.35,6.56-27.43,15.11-54.2,27-79.81a286.34,286.34,0,0,1,18.07-36.06l8-14.83,1.42-.62c.11-.21.23-.42.35-.63l.21,16.21,81.5,0q.13-8.12.25-16.22l0,0,2.55.95A36.29,36.29,0,0,1,638,484.3c20-5.53,40-11.18,60-16.48,9.29-2.45,18.36-5.8,27.94-7.08-7.93-16.15-17.61-31.24-27.86-46,15.06-5.1,30.57-8.63,45.83-13q18.62-5.37,37.25-10.68C799.06,383.24,807.9,365.7,802.25,347.07ZM543.91,407.46q.17-5.2.83-10.37-.66,5.16-.83,10.37a94.61,94.61,0,0,0,.25,10.38A94.61,94.61,0,0,1,543.91,407.46Zm-8-45.63q2.37,1.32,4.73,2.69a13.47,13.47,0,0,0,1.43.76,13.47,13.47,0,0,1-1.43-.76q-2.35-1.36-4.73-2.69-4.75-2.64-9.61-5.08Q531.16,359.2,535.92,361.83Zm7.14,68.68a4.48,4.48,0,0,0,.77.08A4.48,4.48,0,0,1,543.06,430.51Zm2.09-4.59a16.68,16.68,0,0,1,.16,1.91A16.68,16.68,0,0,0,545.15,425.92Z" transform="translate(-334 -279.82)"/><path class="cls-4" d="M550.36,536.75q37.29,0,74.57,0c2,0,4,.26,5.91-.53-1.88.81-3.92.55-5.91.55q-37.29,0-74.57,0h-.46c.07,2,.2,4.06.2,6.09q0,53.65,0,107.32,0,76.29-.1,152.58h82c0-1-.11-2-.11-3V546.41c0-3.22.09-6.45.14-9.67l-.94-.64-.16.07a7.32,7.32,0,0,0,.78-.41c.44-11.65.39-23.31,0-35l-81.5,0-.3-.08Q550.14,518.76,550.36,536.75Z" transform="translate(-334 -279.82)"/><path class="cls-5" d="M780.66,388.44c17.9-7.79,26.74-25.32,21.09-43.92-4-13.13-9.1-25.93-14.18-38.69-4.45-11.2-13-18.12-24.6-21.37-.63-.18-1.42-.06-2-.45l-14.71-.66c-11.47,5.34-23,10.62-34.41,16Q674,317.27,636.16,335.3c-1.63.77-3.19,1.72-4.78,2.59h0c-8.3-7-18.12-7.58-28.34-7.2-8.32.32-16.66.41-25,0-10.3-.45-20.16.16-28.45,7.16-22.61-10.84-45.17-21.8-67.85-32.49-15.89-7.49-31.51-15.59-47.9-22l-15.85.76c-3.65,2-7.85,2.79-11.28,5.26-5.93,4.27-10.73,9.49-13.34,16.36-4.88,12.85-10.15,25.59-14.13,38.72-5.66,18.64,3.14,36.1,21.08,44,19.55,6.28,39.53,11,59.24,16.71,3,.86,6,1.94,8.94,2.93a43.79,43.79,0,0,1,14.31,4.06,9.28,9.28,0,0,0,2.46.26,9.28,9.28,0,0,1-2.46-.26c-4.51,7.12-9.17,14.14-13.49,21.36-4.8,8.06-10,15.89-13.79,24.55-10.08,17.38-18.32,35.66-25.94,54.22-3,7.2-5.72,14.48-8.57,21.73-8,23.65-15.11,47.55-20,72.06-1.92,9.66-3.57,19.37-5.38,29.28,2.36-.17,3.1-1.41,4.06-2.25a450.58,450.58,0,0,1,46.33-35.56c5.45-3.65,5.48-3.68,8.72,2.18a410.89,410.89,0,0,0,29.71,46.15c.73,1,1.21,2.78,2.82,2.28,1.19-.37,1-2,1.17-3.09,1.64-10.52,3.63-21,6.11-31.32,6.56-27.41,15.11-54.14,27-79.73a285.29,285.29,0,0,1,18.07-36l8-14.81,1.42-.62c.11-.21.23-.42.35-.63q.11,8.06.2,16.12h-.22l-.07,0,.07,5.91V534h3l-2.59,0-.46,0c.07,2,.2,4.06.2,6.09q0,53.61,0,107.22,0,76.21-.1,152.43h82c0-1-.11-2-.11-3V543.66c0-3.22.09-6.45.14-9.67l0,0V518.35c0-1.81,0-3.63,0-5.45V498h-.27q.13-8.07.25-16.15l0,0c.94.36.06-.21,1,.14-.23.09-.91,0,.48.92a1.5,1.5,0,0,1,.5.56c6.08,11.62,13.14,22.72,18.64,34.65,2.43,5.27,4.82,10.55,7.23,15.82.73,1.5,1.51,3,2.17,4.49a443.23,443.23,0,0,1,30.94,106.06c.21,1.29-.12,3.17,1.23,3.56,1.77.53,2.26-1.55,3.09-2.66a380.88,380.88,0,0,0,29.84-46.66c2-3.76,3.7-4.59,7.54-1.91,14.37,10,28.46,20.3,41.79,31.65,2.77,2.36,5.17,5.36,9.15,7-2-15-4.92-29.35-8.23-43.58C772.31,572.32,766.4,553.09,760,534l-14.31-36c-1.09-2.23-2.22-4.45-3.27-6.71-5.26-11.27-10.54-22.54-16.94-33.24h0c-7.93-16.14-17.61-31.21-27.86-45.94,15.06-5.1,30.57-8.62,45.83-13C755.82,395.53,768.24,392,780.66,388.44Zm-297,23.15-.53-.16Z" transform="translate(-334 -279.82)"/></svg>