<svg id="Layer_1" data-name="Layer 1" xmlns="http://www.w3.org/2000/svg" viewBox="0 0 276.94 206.6"><defs><style>.cls-1{fill:#376eeb;}.cls-2{fill:#3d3d3d;}</style></defs><title>complete</title><path class="cls-1" d="M554.54,640.75a28.55,28.55,0,0,1-17.34-6,43,43,0,0,1-4.24-3.86L509.7,607.61c-14.44-14.44-29.38-29.38-44.11-44-5.75-5.72-8.84-11.37-9.73-17.79a5.32,5.32,0,0,0-.36-1.26v-6.41c1.23-5.18,2.61-9.39,5.21-13a28.81,28.81,0,0,1,23.5-12.27,28.14,28.14,0,0,1,19.19,7.65c7.18,6.68,14.22,13.81,21,20.71,3.07,3.11,6.13,6.22,9.22,9.3l5.28,5.28,6.39,6.39c3.08,3.06,6.13,4.55,9.33,4.55s6.3-1.51,9.4-4.61l19.76-19.75c30-29.94,60.92-60.9,91.34-91.38,5.49-5.51,11.53-8.65,18.45-9.6a26.27,26.27,0,0,1,3.44-.23c13.39,0,26,10.62,28,23.68,1.58,10.12-1.31,18.7-8.85,26.23l-95.25,95.24-13.44,13.45c-10.44,10.45-21.24,21.26-31.89,31.85A29.94,29.94,0,0,1,554.54,640.75Z" transform="translate(-452 -437.66)"/><path class="cls-2" d="M697,444.66c11.74,0,22.75,9.29,24.54,20.72,1.42,9.06-1.08,16.43-7.86,23.21l-50.13,50.13-45.12,45.11q-6.76,6.75-13.51,13.52c-10.42,10.43-21.19,21.21-31.82,31.78a26.48,26.48,0,0,1-18.59,8.12,25.07,25.07,0,0,1-15.22-5.3,41.53,41.53,0,0,1-3.89-3.56l-23.16-23.16c-14.48-14.48-29.44-29.44-44.21-44.13-5.18-5.15-8-10.17-8.74-15.79a7.85,7.85,0,0,0-.32-1.4v-5.38c1.11-4.59,2.35-8.31,4.55-11.36a25.34,25.34,0,0,1,20.66-10.82A24.68,24.68,0,0,1,501,523.06c7.13,6.63,14.14,13.74,20.91,20.61,3,3.06,6.14,6.23,9.24,9.32l5.26,5.26c2.14,2.14,4.27,4.28,6.42,6.41,3.71,3.69,7.68,5.57,11.79,5.57s8.14-1.9,11.87-5.63l19.68-19.67c30-30,61-60.95,91.43-91.47,5-5,10.23-7.75,16.44-8.6a21.07,21.07,0,0,1,3-.2m0-7a28.78,28.78,0,0,0-3.92.26c-8.13,1.12-14.71,4.85-20.44,10.59q-55.5,55.62-111.11,111.14c-2.38,2.39-4.65,3.58-6.92,3.58s-4.5-1.18-6.86-3.53q-5.84-5.82-11.66-11.67c-10.09-10-19.91-20.4-30.33-30.09a31.51,31.51,0,0,0-21.58-8.59,32.46,32.46,0,0,0-26.34,13.73c-3.18,4.41-4.66,9.46-5.87,14.63v7.58a4.55,4.55,0,0,1,.39,1c1.1,8,5.14,14.23,10.74,19.79q33.75,33.57,67.36,67.28a45.31,45.31,0,0,0,4.59,4.18,32,32,0,0,0,19.46,6.73,33.34,33.34,0,0,0,23.53-10.16q22.73-22.59,45.34-45.31l95.25-95.24c8.12-8.12,11.62-17.77,9.82-29.24C726.12,449.2,712,437.66,697,437.66Z" transform="translate(-452 -437.66)"/></svg>