<svg xmlns="http://www.w3.org/2000/svg" viewBox="0 0 30.26 30.25"><defs><style>.cls-1{fill:#9898a0;}</style></defs><title>Asset 1</title><g id="Layer_2" data-name="Layer 2"><g id="Layer_1-2" data-name="Layer 1"><path class="cls-1" d="M30.25,21.79q0-10.44,0-20.86c0-.76-.17-.93-.94-.93H4.84A4.59,4.59,0,0,0,0,4.53Q0,15.12,0,25.72a4,4,0,0,0,.43,1.93,4.7,4.7,0,0,0,4.41,2.59q12.3,0,24.6,0a.73.73,0,0,0,.74-.34.76.76,0,0,0-.13-.81,4.16,4.16,0,0,1-.66-1.94,10.12,10.12,0,0,1,.72-4.61A2.22,2.22,0,0,0,30.25,21.79ZM10.6,11.47c0-2,0-4,0-6a.77.77,0,0,1,.35-.78.73.73,0,0,1,.81.11l9.77,6a.84.84,0,0,1,.48.65.81.81,0,0,1-.48.65l-9.8,6a.72.72,0,0,1-.78.09.75.75,0,0,1-.35-.74Q10.61,14.47,10.6,11.47ZM28.52,29l-.45,0H5.14a4.3,4.3,0,0,1-1.91-.35A3,3,0,0,1,1.3,25.82a2.9,2.9,0,0,1,2-2.75,4.2,4.2,0,0,1,1.6-.33c7.84,0,15.67,0,23.5,0l.32,0A9.36,9.36,0,0,0,28.52,29Z"/><path class="cls-1" d="M30.25,21.79q0-10.44,0-20.86c0-.76-.17-.93-.94-.93H4.84A4.59,4.59,0,0,0,0,4.53Q0,15.12,0,25.72a4,4,0,0,0,.43,1.93,4.7,4.7,0,0,0,4.41,2.59q12.3,0,24.6,0a.73.73,0,0,0,.74-.34.76.76,0,0,0-.13-.81,4.16,4.16,0,0,1-.66-1.94,10.12,10.12,0,0,1,.72-4.61A2.22,2.22,0,0,0,30.25,21.79ZM28.52,29l-.45,0H5.14a4.3,4.3,0,0,1-1.91-.35A3,3,0,0,1,1.3,25.82a2.9,2.9,0,0,1,2-2.75,4.2,4.2,0,0,1,1.6-.33c7.84,0,15.67,0,23.5,0l.32,0A9.36,9.36,0,0,0,28.52,29ZM29,21.44h-.5c-7.64,0-15.28,0-22.93,0a5.73,5.73,0,0,0-4.21,1.39,3.89,3.89,0,0,1,0-.42c0-5.94,0-11.89,0-17.83A3.29,3.29,0,0,1,4.33,1.32a5.7,5.7,0,0,1,.71,0H29Z"/></g></g></svg>