<svg xmlns="http://www.w3.org/2000/svg" viewBox="0 0 25.65 18.83"><defs><style>.cls-1{fill:#ff5252;}</style></defs><title>Asset 59</title><g id="Layer_2" data-name="Layer 2"><g id="Layer_1-2" data-name="Layer 1"><path class="cls-1" d="M25.65,1.55a3,3,0,0,1-.78,1L9.14,18.32a1.31,1.31,0,0,1-1.39.45,1.56,1.56,0,0,1-.62-.39C4.89,16.17,2.67,13.94.44,11.71a1.28,1.28,0,0,1-.38-1.34A1.22,1.22,0,0,1,1,9.49a1.18,1.18,0,0,1,1,.23,2.55,2.55,0,0,1,.3.26l5.53,5.53c.07.07.12.15.25.3a2.09,2.09,0,0,1,.19-.29l15-15A1.33,1.33,0,0,1,24.81.09a1.38,1.38,0,0,1,.84,1Z"/></g></g></svg>