<svg xmlns="http://www.w3.org/2000/svg" viewBox="0 0 35.11 35.1"><defs><style>.cls-1{fill:#9696a4;}.cls-2{fill:none;stroke:#9898a0;stroke-miterlimit:10;stroke-width:2px;}</style></defs><title>Sessions</title><g id="Layer_2" data-name="Layer 2"><g id="Layer_1-2" data-name="Layer 1"><path class="cls-1" d="M23,21.63c0-.8,0-1.61,0-2.42a.61.61,0,1,1,1.21,0V23.6a.32.32,0,0,0,.13.28c.89.7,1.77,1.4,2.64,2.11a.61.61,0,1,1-.76.94l-1.84-1.48-1.11-.88A.65.65,0,0,1,23,24Z"/><path class="cls-2" d="M7.27,1H8a1.74,1.74,0,0,1,1.3,2c0,.42,0,.84,0,1.27H25.83c0-.56,0-1.11,0-1.66a1.54,1.54,0,0,1,.93-1.49L27.12,1h.72l.2.08a1.49,1.49,0,0,1,1.08,1.38c0,.39,0,.78,0,1.17v.68c.49,0,.93,0,1.37,0a1.85,1.85,0,0,1,1.95,1.93c0,2.42,0,4.85,0,7.27v.33c-5.59-3.82-11.11-4-16.61.08-5.32,4.83-6.21,10.48-3.19,16.88H2.74A1.66,1.66,0,0,1,1,29V6.09A1.67,1.67,0,0,1,2.79,4.31H6c0-.62,0-1.2,0-1.78a1.48,1.48,0,0,1,.76-1.31C6.91,1.13,7.1,1.07,7.27,1Z"/><path class="cls-2" d="M34.11,23.57V24.8a2,2,0,0,0,0,.24,10,10,0,0,1-12.85,8.61A9.92,9.92,0,0,1,23,14.32a9.93,9.93,0,0,1,10.7,7.2C33.9,22.18,34,22.88,34.11,23.57Z"/></g></g></svg>