<svg xmlns="http://www.w3.org/2000/svg" viewBox="0 0 17.95 27.06"><defs><style>.cls-1{fill:#9898a0;}</style></defs><title>Asset 3</title><g id="Layer_2" data-name="Layer 2"><g id="Layer_1-2" data-name="Layer 1"><path class="cls-1" d="M5.9,27.06c-.57-.3-.69-.55-.54-1.17q1.29-5.16,2.56-10.32c0-.08,0-.17.06-.29H7.65c-2.24,0-4.47,0-6.71,0A.86.86,0,0,1,.09,14Q2.7,7.37,5.27.66a.86.86,0,0,1,1-.66h7A.81.81,0,0,1,14,1.24Q12.58,4.57,11.1,7.9a3,3,0,0,0-.14.34h6.11a.79.79,0,0,1,.86.62.94.94,0,0,1-.18.72q-1.85,2.85-3.67,5.7L6.88,26.5a1.32,1.32,0,0,1-.61.56Z"/></g></g></svg>