<svg xmlns="http://www.w3.org/2000/svg" viewBox="0 0 26.07 31.02"><defs><style>.cls-1{fill:#9898a0;}</style></defs><title>Asset 2</title><g id="Layer_2" data-name="Layer 2"><g id="Layer_1-2" data-name="Layer 1"><path class="cls-1" d="M24.75,0H20.12a1.36,1.36,0,0,0-.29,0A20,20,0,0,0,17.61.6,8.49,8.49,0,0,0,13.2,4.2a1.86,1.86,0,0,1-.12.18c-.55-.62-1-1.31-1.62-1.89A8.54,8.54,0,0,0,6.32.05.59.59,0,0,1,6.1,0H1.32A1.31,1.31,0,0,0,0,1.3C0,2.68,0,4.06,0,5.44a2,2,0,0,0,0,.25,8.81,8.81,0,0,0,6.67,8.18,14,14,0,0,0,2.5.28c.88.06,1.77,0,2.65,0v4.61H1.2A1.18,1.18,0,0,0,0,20H0A1.17,1.17,0,0,0,1.2,21.13H11.87c0,.83,0,1.6,0,2.39a.87.87,0,0,1-.21.48L9.39,26.27,8.63,27a1.2,1.2,0,0,0,0,1.69h0a1.18,1.18,0,0,0,1.67,0c.51-.5,1-1,1.54-1.55a.61.61,0,0,1,0,.17c0,.83,0,1.66,0,2.49A1.19,1.19,0,0,0,13.05,31h1.18a.22.22,0,0,1,0-.08c0-.6,0-1.22,0-1.81V27.18l.09,0c.52.51,1,1,1.55,1.54a1.2,1.2,0,0,0,1.68,0l.84-.85A1.79,1.79,0,0,1,18,27.6c-1.19-1.17-2.39-2.39-3.58-3.57-.1-.11-.23-.21-.23-.34,0-.84,0-1.71,0-2.56H24.88A1.17,1.17,0,0,0,26.05,20h0a1.17,1.17,0,0,0-1.17-1.17H14.23V14.17c.9,0,1.8.05,2.69,0a12.13,12.13,0,0,0,2.76-.35,8.78,8.78,0,0,0,6.37-8.1,2,2,0,0,0,0-.25c0-1.38,0-2.76,0-4.14A1.3,1.3,0,0,0,24.75,0ZM11.86,10.2l-3-3.08a1.17,1.17,0,0,0-1.64,0l0,0a1.15,1.15,0,0,0,0,1.64l3,3A6.62,6.62,0,0,1,2.36,5.65c0-1.07,0-2.18,0-3.26,0,0,.06-.06.07-.06,1.28,0,2.56,0,3.81.08a6.5,6.5,0,0,1,5.63,6.17C11.87,9.08,11.86,9.56,11.86,10.2ZM23.49,6.93a6.42,6.42,0,0,1-6.13,4.9H15.87c.69-.72,1.33-1.34,2-2l1.09-1.1a1.15,1.15,0,0,0,0-1.63l0,0a1.15,1.15,0,0,0-1.63,0l-2.94,3a6.74,6.74,0,0,1,.87-4.71,6.48,6.48,0,0,1,5.54-3.1c1,0,2,0,3.1,0A32.52,32.52,0,0,1,23.49,6.93Z"/></g></g></svg>